<?xml version="1.0" encoding="UTF-8" standalone="no"?>
<svg width="179px" height="232px" viewBox="0 0 179 232" version="1.1" xmlns="http://www.w3.org/2000/svg" xmlns:xlink="http://www.w3.org/1999/xlink">
    <defs></defs>
    <g id="Page-1" stroke="none" stroke-width="1" fill="none" fill-rule="evenodd">
        <g id="Artboard">
            <g id="Ethereum-private" opacity="0.525303172" transform="translate(33.000000, 49.000000)">
                <g id="Ethereum" transform="translate(0.075472, 0.000000)">
                    <g id="ethereum.new_">
                        <g id="Layer_1">
                            <g id="Group">
                                <path d="M50.8315958,0.0859647817 C51.3473617,0.945612599 51.8917813,1.83391534 52.4075472,2.69356316 C63.6684362,21.3765757 74.9006716,40.0309334 86.1615606,58.7139459 C91.1472977,66.9952199 96.1616885,75.3051488 101.147426,83.5864228 C101.204733,83.7010425 101.290694,83.8156622 101.348001,83.9302819 C101.376655,83.9875918 101.348001,84.0449016 101.26204,84.0449016 C100.40243,83.7010425 99.6001279,83.2998735 98.7691717,82.9273595 C96.1903422,81.7525074 93.6401663,80.6063104 91.0613367,79.4314583 C88.5971218,78.3139162 86.1042533,77.1677191 83.6400384,76.0501769 C80.8892869,74.7893601 78.1385353,73.5571982 75.3877838,72.3250364 C72.9235689,71.2074942 70.4307004,70.0612971 67.9664854,68.943755 C65.5022705,67.8262128 63.009402,66.7086706 60.5451871,65.5624735 C58.4248161,64.588206 56.3044452,63.6425934 54.1840742,62.6683259 C53.1525424,62.1811921 52.0923569,61.7227133 51.0608251,61.2355795 C50.8602494,61.1496147 50.6310201,61.06365 50.5737128,60.8057556 C50.5164055,60.5765162 50.5164055,60.3186219 50.5164055,60.0893824 L50.5164055,0.974267526 C50.5164055,0.659063327 50.5164055,0.343859127 50.6596738,0.0573098545 L50.6596738,0.0573098545 C50.7742885,0.0573098545 50.8029421,0.0573098545 50.8315958,0.0859647817" id="Shape" fill="#303030"></path>
                                <path d="M50.7456348,0.0859647817 L50.7456348,0.544443618 L50.7456348,60.3759317 L50.7456348,61.0063401 C50.7456348,61.034995 50.7169811,61.034995 50.7169811,61.06365 C49.8573713,61.5794387 48.9118004,61.9232978 47.9948833,62.3531217 C45.8458587,63.3273892 43.696834,64.3016567 41.5478094,65.2759243 C39.0262872,66.4221214 36.504765,67.5683185 33.9545891,68.7145155 C31.8055644,69.6887831 29.6565398,70.6630506 27.5075152,71.6373181 C25.0433003,72.7548603 22.5504317,73.8724024 20.0862168,75.0185995 C17.9658459,75.9928671 15.8454749,76.9384797 13.7251039,77.9127472 C11.2035817,79.0589443 8.68205948,80.2051414 6.18919092,81.3513385 C4.32670291,82.2109863 2.43556124,83.0419792 0.573073233,83.901627 C0.429804925,83.9589368 0.286536617,84.0162467 0.143268308,84.0735565 C0.114614647,84.0449016 0.085960985,84.0449016 0.085960985,84.0162467 C0.085960985,83.9875918 0.085960985,83.9302819 0.114614647,83.901627 C1.20345379,82.0963666 2.29229293,80.3197611 3.38113208,78.5145007 C5.30092741,75.3624587 7.19206908,72.1817617 9.11186441,69.0297197 C11.0030061,65.9063327 12.8654941,62.7829456 14.7566358,59.6595585 C16.9056604,56.0776926 19.054685,52.5244816 21.2323633,48.9426157 C23.1521586,45.7619188 25.0719539,42.5812219 26.9630956,39.400525 C29.1121202,35.847314 31.2611449,32.2654481 33.4101695,28.7122371 C35.3299648,25.5601951 37.2211065,22.3794982 39.1409018,19.2274562 C41.2899264,15.6742452 43.4389511,12.0923793 45.5879757,8.53916832 C47.2212344,5.81695023 48.8544931,3.12338707 50.4877518,0.401168981 C50.5737128,0.286549272 50.6023665,0.143274636 50.7456348,0.0859647817" id="Shape" fill="#818284"></path>
                                <path d="M50.7456348,61.0063401 C50.8029421,61.034995 50.8602494,61.034995 50.9175568,61.06365 C51.4333227,61.2928894 51.9490886,61.5507837 52.4648545,61.7800231 C53.267157,62.1525372 54.0694595,62.4963963 54.8717621,62.8689104 C55.215606,63.0408399 55.5881036,63.2127695 55.9319476,63.3560441 C56.4477135,63.5852836 56.9348257,63.814523 57.4505916,64.0437624 C58.2528941,64.3876215 59.026543,64.7601356 59.8288455,65.1039947 C60.1726895,65.2759243 60.5165334,65.4478538 60.889031,65.5911285 C61.4047969,65.8203679 61.8919092,66.0496073 62.4076751,66.2788467 C63.2099776,66.6227059 63.9836265,66.9952199 64.785929,67.339079 C65.1584266,67.5110086 65.5309242,67.6829382 65.9034218,67.8548677 C66.3905341,68.0841071 66.8776463,68.3133466 67.3647586,68.542586 C68.1670611,68.8864451 68.9407099,69.2589592 69.7430125,69.6028183 C70.0868564,69.7747479 70.4307004,69.9466774 70.803198,70.0899521 C71.2903102,70.2905365 71.7774224,70.5484309 72.2645347,70.7776703 C73.0668372,71.1501844 73.8691398,71.4940435 74.6714423,71.8665575 C75.0439399,72.0384871 75.4164375,72.2104167 75.7602814,72.3823462 C76.5625839,72.7262054 77.3362328,73.0987194 78.1385353,73.4712335 C79.1414135,73.9297123 80.115638,74.3881911 81.1185161,74.818015 C81.7775504,75.1045643 82.4365846,75.4197685 83.0956188,75.7063178 C84.098497,76.1647966 85.0727215,76.6232755 86.0755996,77.0530994 C86.7346338,77.3396486 87.3936681,77.6548528 88.0527023,77.9414021 C89.0555804,78.399881 90.0298049,78.8583598 91.0326831,79.2881837 C92.0355612,79.7466625 93.0097857,80.2051414 94.0126639,80.6349653 C94.6716981,80.9215146 95.3307323,81.2367188 95.9897665,81.523268 C96.9926447,81.9817469 97.9668692,82.4402257 98.9697474,82.8700496 C99.6287816,83.1565989 100.287816,83.4718031 100.918196,83.7583523 C101.061465,83.8156622 101.204733,83.8729721 101.26204,84.0162467 C101.147426,84.1022115 101.004157,84.1881763 100.889543,84.274141 C84.2990726,94.0741262 67.7372562,103.874111 51.1467861,113.674096 C51.0035177,113.760061 50.8889031,113.903336 50.7169811,113.874681 C50.6023665,113.731406 50.5737128,113.588132 50.5737128,113.416202 L50.5737128,112.929068 L50.5737128,61.9519527 C50.6023665,61.6367485 50.5164055,61.2928894 50.7456348,61.0063401 L50.7456348,61.0063401 L50.7456348,61.0063401 Z" id="Shape" fill="#141414"></path>
                                <path d="M50.7456348,61.0063401 L50.7456348,61.4075091 L50.7456348,113.444857 L50.7456348,113.903336 C50.5737128,113.903336 50.4590982,113.788716 50.3158299,113.702751 C47.765654,112.212695 45.2154781,110.693984 42.6939559,109.203928 C28.6823153,100.922654 14.6706748,92.6413798 0.630380556,84.3601058 C0.487112248,84.274141 0.34384394,84.1881763 0.200575632,84.1022115 C0.229229293,83.9589368 0.34384394,83.9302819 0.458458587,83.8729721 C1.03153182,83.5864228 1.63325871,83.3285284 2.20633195,83.0706341 C2.66479053,82.8700496 3.12324912,82.6694651 3.55305405,82.4688806 C5.04304445,81.7811624 6.56168852,81.0934441 8.05167893,80.4057259 C9.36974736,79.8039724 10.6591621,79.2022189 11.9772306,78.6291204 C13.6391429,77.8840923 15.3010553,77.1104092 16.9629677,76.3653811 C18.2810361,75.7636276 19.5704509,75.1618742 20.8885193,74.5887756 C22.2352414,73.9870222 23.5533099,73.3852687 24.900032,72.7548603 C26.1894468,72.1531068 27.4788615,71.5800083 28.79693,70.9782548 C30.2582667,70.3191915 31.7196035,69.6601281 33.1809402,69.0010648 C34.0118964,68.6285508 34.8428526,68.2273818 35.6738088,67.8548677 C36.8199552,67.339079 37.937448,66.8232903 39.0835945,66.3075017 C39.8572434,65.9636425 40.6022386,65.6197834 41.3758874,65.2759243 C42.5793412,64.7314807 43.8114487,64.187037 45.0149025,63.6139385 C45.7885513,63.2700794 46.5622002,62.8975653 47.3358491,62.5537062 C48.4246882,62.0665724 49.4848737,61.5794387 50.5737128,61.0923049 C50.6596738,61.0063401 50.6883275,61.0063401 50.7456348,61.0063401" id="Shape" fill="#353535"></path>
                                <path d="M101.233387,93.9021966 C100.660313,94.7045346 100.08724,95.5355274 99.5141669,96.3378654 C84.3277263,117.714441 69.1699392,139.091017 53.9834986,160.438938 C53.0092741,161.785719 52.0637032,163.161156 51.0894787,164.507937 C51.0035177,164.622557 50.9175568,164.737177 50.8315958,164.880451 C50.6023665,164.823142 50.6596738,164.651212 50.6310201,164.479282 C50.6023665,164.307353 50.6023665,164.106768 50.6023665,163.934839 L50.6023665,124.448349 C50.6023665,124.133145 50.5164055,123.817941 50.7456348,123.531391 C64.8432363,115.221462 78.9121842,106.882879 93.0097857,98.5729497 C95.6172689,97.0542386 98.1960985,95.5068725 100.803582,93.9881614 C100.918196,93.9021966 101.061465,93.8448867 101.204733,93.7875769 C101.233387,93.8162318 101.26204,93.8735417 101.233387,93.9021966" id="Shape" fill="#303030"></path>
                                <path d="M50.7456348,123.560046 L50.7456348,124.133145 L50.7456348,164.336008 C50.7456348,164.536592 50.6596738,164.737177 50.8315958,164.880451 C50.8315958,164.937761 50.7742885,164.966416 50.7456348,164.937761 C50.6883275,164.909106 50.6596738,164.851796 50.6310201,164.823142 C49.3989127,163.103846 48.1954589,161.38455 46.9633515,159.6366 C45.0722098,156.971691 43.1810681,154.335438 41.3185801,151.67053 C39.9145507,149.69334 38.5105213,147.71615 37.1064918,145.710305 C35.3586185,143.245981 33.6107451,140.781658 31.8628718,138.317334 C30.487496,136.397454 29.1407739,134.477574 27.7653981,132.557693 C25.6736808,129.606236 23.5819635,126.654778 21.4902462,123.703321 C19.7710265,121.267652 18.0231532,118.831983 16.3039335,116.396314 C13.4958746,112.441935 10.7164695,108.516209 7.90841062,104.56183 C5.44419571,101.151893 2.97998081,97.7133019 0.544419571,94.2460557 C0.51576591,94.1887459 0.487112248,94.131436 0.458458587,94.1027811 C0.458458587,93.9595064 0.51576591,93.9308515 0.659034218,93.9881614 C1.57595139,94.532605 2.49286856,95.0770486 3.40978574,95.5928373 C5.67342501,96.9396189 7.96571794,98.2864005 10.2293572,99.633182 C12.0631916,100.722069 13.8683722,101.782302 15.7022066,102.871189 C18.1377678,104.303935 20.5446754,105.736682 22.9802366,107.169428 C25.8742565,108.888724 28.7682763,110.579364 31.6622961,112.29866 C34.9574672,114.247195 38.2526383,116.19573 41.5478094,118.144265 C44.040678,119.634321 46.5622002,121.095723 49.0550688,122.585779 C49.542181,122.872328 50.0292933,123.158877 50.5164055,123.445427 C50.6023665,123.502736 50.6883275,123.531391 50.7456348,123.560046" id="Shape" fill="#818284"></path>
                                <path d="M0.804349217,94.1695152 C0.6835945,94.1695152 0.603091355,94.2235176 0.52258821,94.3855249 C0.361581921,94.2235176 0.281078776,94.0615103 0.200575632,93.8455006 C0.281078776,93.7374957 0.361581921,93.7914982 0.401833493,93.8455006 C0.562839783,93.899503 0.723846072,93.9535055 0.804349217,94.1695152" id="Shape" fill="#A6A6A6"></path>
                                <path d="M101.322804,94.3214065 C101.322804,94.2271712 101.322804,94.0387005 101.204733,93.9444652 C101.322804,93.7559945 101.440876,93.6617592 101.677018,93.7559945 C101.913161,93.8502299 101.677018,94.0387005 101.677018,94.1329359 C101.558947,94.2271712 101.440876,94.2271712 101.322804,94.3214065" id="Shape" fill="#808080"></path>
                                <path d="M52.0198593,0.228654927 L51.7198593,0.228654927 C51.7198593,0.128654927 51.8198593,0.0286549272 51.8198593,0.0286549272 C52.0198593,0.0286549272 52.0198593,0.128654927 52.0198593,0.228654927" id="Shape" fill="#818284"></path>
                            </g>
                        </g>
                    </g>
                </g>
            </g>
            <text id="!" transform="translate(136.544993, 49.126918) rotate(17.000000) translate(-136.544993, -49.126918) " font-family="HiraMaruProN-W4, Hiragino Maru Gothic ProN" font-size="90" font-weight="normal" fill="#646464">
                <tspan x="122.544993" y="83.1269179">!</tspan>
            </text>
        </g>
    </g>
</svg>
